<svg width="927" height="95" fill="none" xmlns="http://www.w3.org/2000/svg"><path d="M895.592 62.045c0 1.875.732 2.812 2.197 2.812 2.139 0 4.951-1.904 8.438-5.712 5.185-5.655 7.778-10.489 7.778-14.502 0-1.905-.996-2.857-2.988-2.857-3.311 0-6.768 2.578-10.371 7.734-3.37 4.834-5.054 9.01-5.054 12.525zm19.292-15.337l3.603-5.361 5.757-.352-9.536 15.733c-.029.058-1.011 1.625-2.944 4.702-.41.879-.616 1.626-.616 2.24 0 .91.455 1.363 1.363 1.363 1.494 0 4.702-2.505 9.624-7.514 2.49-2.52 3.838-3.912 4.043-4.175.351 0 .527.117.527.351 0 .557-1.377 2.242-4.131 5.054-3.428 3.516-5.757 5.64-6.987 6.372-1.524.908-2.93 1.377-4.219 1.406-2.461.03-3.691-1.435-3.691-4.394 0-.235.029-.674.088-1.319.029-.322.146-1.025.351-2.109-4.072 5.186-7.851 7.793-11.338 7.822-3.486.03-5.229-3.017-5.229-9.14 0-1.26.205-2.652.615-4.175-.205.351-.527.806-.967 1.362-.351.323-.615.484-.791.484-.351 0-.527-.118-.527-.352 0-.557 1.406-2.256 4.219-5.098 5.888-5.976 11.323-8.964 16.303-8.964 3.194 0 4.79 1.377 4.79 4.13 0 .206-.029.513-.087.923-.03.205-.103.542-.22 1.011z" fill="#192655"/><path d="M868.082 53.168c-.791 1.26-1.362 1.89-1.714 1.89-.322 0-.483-.118-.483-.352 0-.176.278-.645.835-1.406.293-.41 1.216-1.45 2.768-3.12 5.889-6.358 11.338-9.536 16.348-9.536 3.955 0 5.933 1.538 5.933 4.614a4.431 4.431 0 01-.967 2.812c-.645.82-1.48 1.23-2.505 1.23-1.904 0-2.857-.776-2.857-2.328 0-.44.484-1.114 1.451-2.022.996-.908 1.494-1.45 1.494-1.626 0-1.025-.63-1.538-1.89-1.538-3.31 0-6.592 2.432-9.844 7.295-2.988 4.482-4.482 8.496-4.482 12.041 0 2.871 1.23 4.307 3.691 4.307 2.93 0 6.621-2.212 11.075-6.636 3.515-3.486 5.317-5.303 5.405-5.45.381 0 .571.147.571.44 0 .498-1.553 2.3-4.658 5.405-4.834 4.864-9.17 7.31-13.008 7.34-2.49.029-4.438-.997-5.845-3.077-1.23-1.787-1.845-3.984-1.845-6.592 0-1.054.175-2.285.527-3.691z" fill="#192655"/><path d="M847.779 56.244c3.164-.703 6.255-2.168 9.273-4.394 3.574-2.637 5.361-5.376 5.361-8.218 0-1.23-.527-1.846-1.582-1.846-2.519 0-5.2 1.846-8.042 5.537-2.227 2.9-3.896 5.874-5.01 8.921zm-4.966-3.164c-.908 1.318-1.523 1.978-1.845 1.978-.264 0-.396-.118-.396-.352 0-.469 1.143-1.978 3.428-4.526 5.713-6.358 11.162-9.536 16.348-9.536 1.347 0 2.505.38 3.471 1.142.996.762 1.494 1.802 1.494 3.12 0 3.135-2.329 5.992-6.987 8.57-3.281 1.816-6.958 3.208-11.03 4.174-.293 1.641-.44 2.842-.44 3.604 0 2.783 1.202 4.175 3.604 4.175 3.105 0 6.797-2.198 11.074-6.592.791-.82 1.802-1.992 3.032-3.516 1.055-1.318 1.7-1.977 1.934-1.977.352 0 .527.146.527.44 0 .526-1.523 2.328-4.57 5.404-4.805 4.864-9.009 7.31-12.612 7.34-2.432.029-4.351-1.011-5.757-3.12-1.231-1.817-1.846-4-1.846-6.549 0-1.435.191-2.695.571-3.779z" fill="#192655"/><path d="M829.454 51.498c-.937.85-2.71 1.567-5.317 2.153-2.754.616-4.571 1.26-5.449 1.934-1.729 1.289-4.717 4.673-8.965 10.151l-6.46.352 11.953-16.963c.088-.147.278-.425.571-.835 1.553-2.256 2.329-3.823 2.329-4.702 0-.791-.425-1.187-1.274-1.187-1.729 0-5.288 2.886-10.679 8.658-2.49 2.666-3.911 3.999-4.263 3.999-.293 0-.439-.088-.439-.264 0-.176.132-.454.395-.835.059-.088.601-.689 1.626-1.802l2.945-3.208c5.068-5.537 8.716-8.305 10.942-8.305 2.432 0 3.648 1.45 3.648 4.35 0 2.637-1.304 5.904-3.912 9.8 1.905-1.758 3.765-2.769 5.582-3.032 2.548-.381 4.394-.864 5.537-1.45.996-.528 2.797-2.403 5.405-5.625l2.549-3.164 6.504-.396-12.349 17.534c-1.699 2.402-2.549 4.058-2.549 4.966 0 .791.41 1.201 1.231 1.23.996.03 2.27-.6 3.823-1.89 1.113-.907 3.413-3.178 6.899-6.81 2.578-2.667 3.999-4 4.263-4 .322 0 .483.088.483.264 0 .205-.703 1.084-2.109 2.637l-2.9 3.208c-4.981 5.507-8.643 8.261-10.987 8.261-2.402 0-3.603-1.42-3.603-4.262 0-2.784 1.523-6.372 4.57-10.767z" fill="#192655"/><path d="M781.861 69.735c-4.804 2.666-9.052 5.552-12.744 8.658-5.566 4.687-8.349 8.73-8.349 12.129 0 2.021.893 3.032 2.68 3.032 4.336 0 10.474-7.954 18.413-23.863v.044zm-4.438-9.184c.82-1.026 1.64-2.578 2.461-4.658 2.08-.088 4.057-.894 5.932-2.417.996-.82 1.641-1.377 1.934-1.67.645-.674 1.055-1.421 1.23-2.241.323-.587.484-1.377.484-2.374 0-.673-.044-1.245-.132-1.714-.293-1.61-1.23-2.534-2.812-2.768-.821-.117-2.564.6-5.23 2.153-4.043 2.344-7.353 4.966-9.932 7.866l-1.362 1.539c-.469.527-.893.79-1.274.79-.293 0-.44-.102-.44-.307 0-.176.132-.454.396-.835l.659-.923c.381-.527 1.421-1.655 3.12-3.384 5.889-5.976 11.323-8.964 16.304-8.964 3.193 0 4.892 1.684 5.097 5.053.059 1.084-.219 2.183-.835 3.296-1.845 3.31-4.98 5.757-9.404 7.339.469-.059.894-.088 1.275-.088 3.046 0 4.57 1.304 4.57 3.911 0 1.524-.469 3.545-1.406 6.065 3.632-2.198 8.569-6.49 14.809-12.876.293 0 .44.146.44.44 0 1.318-2.417 3.925-7.251 7.822-3.78 3.046-6.87 5.288-9.273 6.723-9.345 17.578-17.226 26.367-23.642 26.367-3.106 0-4.659-1.494-4.659-4.482 0-5.684 8.116-13.154 24.346-22.412 1.817-3.018 2.725-5.406 2.725-7.163 0-1.612-.674-2.417-2.022-2.417-1.347 0-3.384.776-6.108 2.329z" fill="#192655"/><path d="M755.67 58.705c-1.524 2.549-2.285 4.248-2.285 5.098 0 1.084.454 1.626 1.362 1.626 1.377 0 4.57-2.608 9.58-7.823l4.087-4.262c.352 0 .527.117.527.351 0 .498-1.201 1.978-3.603 4.439-5.449 5.596-9.17 8.393-11.162 8.393-2.842 0-4.263-1.977-4.263-5.932 0-.381.132-1.23.396-2.55-4.747 5.655-8.482 8.482-11.206 8.482-3.165 0-4.747-1.904-4.747-5.712 0-2.725 2.183-7.295 6.548-13.712l.659-.966-4.174 4.834c-2.344 2.724-3.589 4.087-3.736 4.087-.263 0-.395-.088-.395-.264 0-.879 3.618-5.464 10.854-13.755l6.021-.395-8.789 15.6c-2.344 4.16-3.516 6.68-3.516 7.559 0 1.084.469 1.626 1.406 1.626 5.01 0 12.1-8.13 21.27-24.39l5.933-.395-10.767 18.061z" fill="#192655"/><path d="M709.088 61.737c0 2.256.806 3.282 2.417 3.077 1.553-.206 2.973-.674 4.263-1.407 3.955-2.256 7.104-5.698 9.448-10.327.615-1.201 1.128-2.768 1.538-4.702.322-1.494.22-2.856-.308-4.087-.586-1.465-1.626-2.197-3.12-2.197-1.142 0-2.431.644-3.867 1.933-2.549 2.285-4.321 4.117-5.317 5.493-3.37 4.659-5.054 8.731-5.054 12.217zm15.337-4.087a3.78 3.78 0 001.538.308c.967 0 2.021-.322 3.164-.967 1.787-.996 3.061-2.036 3.823-3.12.967-1.377 1.553-1.846 1.758-1.406.176.351.249.586.22.703-.938 1.172-1.714 2.065-2.329 2.68-.879.88-1.773 1.553-2.681 2.022-.615.322-1.904.645-3.867.967-.908.146-1.846.19-2.813.132-4.277 4.98-8.305 7.47-12.085 7.47-4.043 0-6.064-2.885-6.064-8.657 0-2.05.234-3.764.703-5.141-1.172 1.172-1.802 1.787-1.89 1.845-.439 0-.556-.205-.351-.615l.439-.835c3.018-4.072 6.797-7.397 11.338-9.976 1.231-.703 2.827-1.376 4.79-2.02.967-.323 1.89-.484 2.769-.484.996 0 1.831.16 2.505.483 1.875.879 3.09 2.168 3.647 3.867l.396 1.187 1.45-2.9c.615-1.231.805-2.579.571-4.044-.205-1.26-.395-2.226-.571-2.9-.323-1.201-.718-2.11-1.187-2.725-.293-.38-.747-1.186-1.362-2.417-1.524-3.046-2.095-5.903-1.714-8.569.85-6.006 4.204-9.009 10.064-9.009 1.787 0 3.149.308 4.086.923 2.344 1.553 4.673 2.33 6.988 2.33 1.201 0 2.182-.836 2.944-2.506.498-1.787.879-2.68 1.143-2.68.556 0 .835.205.835.615 0 1.963-.689 3.823-2.066 5.581-1.465 1.904-3.149 2.856-5.054 2.856-2.578 0-4.76-.585-6.547-1.757l-2.198-1.45c-.673-.44-1.479-.66-2.417-.66-.351 0-.864-.029-1.538-.088-.674-.058-1.23.074-1.67.396-1.142.85-1.714 2.08-1.714 3.691 0 .645.088 1.333.264 2.066.293 1.23 1.172 3.296 2.637 6.196 1.26 2.49 1.948 4.526 2.065 6.108.118 1.67-.307 3.985-1.274 6.944-.791 2.431-1.758 4.614-2.9 6.548-.235.41-1.128 1.962-2.681 4.658-.938 1.64-1.992 3.09-3.164 4.35zm-63.677 4.087c0 2.08.938 3.12 2.813 3.12 1.259 0 2.959-.747 5.097-2.24a22.055 22.055 0 003.472-2.99c4.307-4.482 6.46-8.759 6.46-12.831 0-2.93-1.157-4.395-3.472-4.395-3.047 0-6.255 2.49-9.624 7.471-3.164 4.658-4.746 8.613-4.746 11.865zm15.337-4.087c.146.059.264.088.352.088.38.117.717.176 1.01.176 2.315 0 4.702-1.348 7.163-4.043l1.011-1.406c.147-.147.381-.25.703-.308.235 0 .352.19.352.572v.22l-.044.087c0 .088-.015.132-.044.132l-.967 1.23c-2.461 3.135-5.391 4.703-8.789 4.703h-.571a5.866 5.866 0 00-.572-.044 5.273 5.273 0 00-.791-.088c-4.453 5.01-8.481 7.529-12.085 7.558-4.072.03-6.108-3.178-6.108-9.624 0-1.406.249-2.827.747-4.262-.967 1.23-1.626 1.845-1.977 1.845h-.176c-.176-.058-.264-.175-.264-.351.059-.205.264-.572.615-1.099.469-.556 1.495-1.67 3.077-3.34 5.712-6.035 11.03-9.052 15.952-9.052 4.16 0 6.24 2.124 6.24 6.372 0 2.841-1.611 6.386-4.834 10.634z" fill="#192655"/><path d="M657.76 53.607l-4.483 5.186c-4.423 5.127-8.086 7.69-10.986 7.69-1.23 0-2.183-.57-2.856-1.714-.586-.966-.879-2.094-.879-3.383 0-2.608 1.567-6.167 4.702-10.679.205-.293.337-.498.395-.615 2.315-3.604 3.472-5.786 3.472-6.548 0-.762-.439-1.143-1.318-1.143-1.641 0-5.083 2.622-10.328 7.867-2.812 2.812-4.335 4.218-4.57 4.218-.293 0-.439-.117-.439-.351 0-.615.732-1.597 2.197-2.945l3.12-2.9a560.618 560.618 0 016.812-6.196c1.435-.967 2.797-1.45 4.087-1.45 2.607 0 3.911 1.582 3.911 4.746 0 1.025-.249 2.168-.747 3.427-.411 1.026-1.407 2.71-2.989 5.054l-1.274 1.89c-2.783 4.13-4.175 6.753-4.175 7.866 0 1.172.469 1.758 1.406 1.758 1.846 0 4.864-2.154 9.053-6.46 1.26-1.29 2.534-2.783 3.823-4.483 1.055-1.377 1.744-2.021 2.066-1.933.146.058.219.176.219.351 0 .176-.073.425-.219.747z" fill="#192655"/><path d="M612.936 56.244c3.164-.703 6.254-2.168 9.272-4.394 3.574-2.637 5.361-5.376 5.361-8.218 0-1.23-.527-1.846-1.582-1.846-2.519 0-5.2 1.846-8.042 5.537-2.226 2.9-3.896 5.874-5.009 8.921zm-4.966-3.164c-.908 1.318-1.524 1.978-1.846 1.978-.264 0-.395-.118-.395-.352 0-.469 1.142-1.978 3.427-4.526 5.713-6.358 11.162-9.536 16.348-9.536 1.348 0 2.505.38 3.472 1.142.996.762 1.494 1.802 1.494 3.12 0 3.135-2.329 5.992-6.988 8.57-3.281 1.816-6.958 3.208-11.03 4.174-.293 1.641-.439 2.842-.439 3.604 0 2.783 1.201 4.175 3.603 4.175 3.106 0 6.797-2.198 11.074-6.592.791-.82 1.802-1.992 3.033-3.516 1.054-1.318 1.699-1.977 1.933-1.977.352 0 .528.146.528.44 0 .526-1.524 2.328-4.571 5.404-4.804 4.864-9.009 7.31-12.612 7.34-2.432.029-4.351-1.011-5.757-3.12-1.23-1.817-1.846-4-1.846-6.549 0-1.435.191-2.695.572-3.779z" fill="#192655"/><path d="M559.103 58.178c.703-2.051 1.757-4.131 3.164-6.24a261.624 261.624 0 013.999-5.801c-6.739 5.947-10.401 8.92-10.987 8.92-.205 0-.322-.014-.351-.043-.03-.03-.044-.059-.044-.088 0-.85 4.643-5.479 13.93-13.887l6.021-.527c-2.666 3.72-5.288 7.5-7.866 11.338-3.662 5.449-5.493 9.404-5.493 11.865 0 .762.336 1.142 1.01 1.142 2.666.03 10.181-7.749 22.544-23.334l6.328-.396-11.601 16.963c-1.67 2.431-2.593 4.336-2.769 5.713-.088.703.337 1.054 1.275 1.054 2.138 0 8.818-6.709 20.039-20.127l2.68-3.207 6.504-.396-12.392 17.534c-1.699 2.402-2.549 4.087-2.549 5.054 0 .85.454 1.274 1.362 1.274.879 0 2.124-.674 3.736-2.021.175-.147 2.827-2.783 7.954-7.91 1.933-1.934 3.003-2.9 3.208-2.9.293 0 .439.102.439.307 0 .205-.688 1.07-2.065 2.593l-2.901 3.208c-2.373 2.607-3.999 4.306-4.878 5.097-2.343 2.08-4.379 3.12-6.108 3.12-2.402 0-3.604-1.406-3.604-4.218 0-2.725 1.29-6.006 3.868-9.844-7.412 9.404-12.671 14.092-15.777 14.062-2.431-.029-3.647-1.289-3.647-3.779 0-2.988 1.318-6.372 3.955-10.151-5.127 5.771-8.672 9.492-10.635 11.162-2.168 1.846-3.984 2.768-5.449 2.768-2.051 0-3.149-1.054-3.296-3.164-.176-2.168-.044-3.882.396-5.141zm31.289 9.492l-27.466 4.35-1.231-1.538 28.521-3.251.176.439z" fill="#192655"/><path d="M525.396 62.045c0 1.875.733 2.812 2.198 2.812 2.138 0 4.951-1.904 8.437-5.712 5.186-5.655 7.779-10.489 7.779-14.502 0-1.905-.997-2.857-2.989-2.857-3.31 0-6.767 2.578-10.371 7.734-3.369 4.834-5.054 9.01-5.054 12.525zm19.292-15.337l3.604-5.361 5.757-.352-9.536 15.733a660.38 660.38 0 01-2.945 4.702c-.41.879-.615 1.626-.615 2.24 0 .91.454 1.363 1.362 1.363 1.495 0 4.703-2.505 9.624-7.514 2.491-2.52 3.838-3.912 4.043-4.175.352 0 .528.117.528.351 0 .557-1.377 2.242-4.131 5.054-3.428 3.516-5.757 5.64-6.987 6.372-1.524.908-2.93 1.377-4.219 1.406-2.461.03-3.692-1.435-3.692-4.394 0-.235.03-.674.088-1.319.03-.322.147-1.025.352-2.109-4.072 5.186-7.852 7.793-11.338 7.822-3.486.03-5.229-3.017-5.229-9.14 0-1.26.205-2.652.615-4.175-.205.351-.528.806-.967 1.362-.352.323-.615.484-.791.484-.352 0-.527-.118-.527-.352 0-.557 1.406-2.256 4.218-5.098 5.889-5.976 11.324-8.964 16.304-8.964 3.193 0 4.79 1.377 4.79 4.13 0 .206-.029.513-.088.923-.029.205-.102.542-.22 1.011z" fill="#192655"/><path d="M506.72 39.677c5.742-4.014 10.634-8.364 14.677-13.052 4.483-5.215 6.724-9.126 6.724-11.733 0-1.875-.806-2.74-2.417-2.593-2.109.176-3.354.806-3.735 1.89L506.72 39.676zm1.406-11.734a72.752 72.752 0 016.855-9.756c3.897-4.658 7.471-6.987 10.723-6.987 1.143 0 2.109.425 2.9 1.275.821.82 1.231 1.801 1.231 2.944 0 6.035-8.247 15.073-24.741 27.114l-3.867 6.328c-2.608 4.278-4.629 7.91-6.065 10.899-.879 1.846-1.318 3.15-1.318 3.91 0 .675.205 1.114.615 1.32.439.292 1.128.439 2.065.439 3.604 0 6.797-1.7 9.58-5.098 2.432-2.988 3.926-6.401 4.483-10.24.176-1.318.322-2.621.439-3.91.293-3.692 1.363-5.537 3.208-5.537 1.758 0 2.637 1.215 2.637 3.647 0 3.926-1.919 8.379-5.757 13.36-.527 0-.014.087 1.538.263 2.227 0 4.644-1.377 7.251-4.13l1.451-1.539c.292-.058.41-.088.351-.088.234 0 .352.176.352.528v.351l-.088.088-.967 1.186c-2.607 3.194-5.625 4.79-9.053 4.79-.879 0-1.582-.043-2.109-.131-4.629 5.039-9.346 7.558-14.151 7.558-3.515 0-5.288-1.948-5.317-5.844-.029-1.934 1.187-5.347 3.648-10.24l.087-.175-2.285 2.329c-.088.117-.337.38-.747.79-.703.733-1.142 1.1-1.318 1.1h-.22c-.176-.06-.264-.177-.264-.352 0-.235.601-1.04 1.802-2.417 6.24-7.12 11.192-13.8 14.854-20.04l2.197-3.735zm-58.711 23.643c.059 1.318.645 2.139 1.758 2.46 1.172.499 2.666.089 4.482-1.23 2.93-2.138 4.336-4.497 4.219-7.075-.117-2.46-1.099-3.691-2.944-3.691-1.465 0-3.047.952-4.746 2.856-1.934 2.197-2.857 4.424-2.769 6.68zm12.217-5.625a433.26 433.26 0 003.559-4.438l6.329-.396-11.602 16.963c-1.846 2.695-2.769 4.57-2.769 5.625 0 .762.425 1.142 1.275 1.142.967 0 2.226-.63 3.779-1.89.322-.263 2.622-2.533 6.9-6.81l.966-.967a80.46 80.46 0 001.231-1.319c1.054-1.143 1.743-1.714 2.065-1.714.293 0 .44.088.44.264 0 .234-.41.806-1.231 1.714-.146.146-.425.454-.835.923l-2.944 3.208c-3.193 3.486-5.449 5.698-6.768 6.635-1.435 1.026-2.812 1.553-4.131 1.582-2.402 0-3.603-1.26-3.603-3.779 0-.732.308-2.344.923-4.834.234-.967.542-1.816.923-2.549-2.139 2.725-4.732 5.303-7.779 7.735-1.142.908-1.845 1.45-2.109 1.626-1.787 1.171-3.472 1.772-5.054 1.801-2.783.03-4.175-.952-4.175-2.944 0-1.816.909-2.724 2.725-2.724 1.055 0 2.212 1.318 3.472 3.954h.132c1.464-.761 3.281-2.153 5.449-4.174 2.051-1.905 3.633-3.604 4.746-5.098-.352.117-1.011.25-1.978.396-1.787.263-3.222-.235-4.306-1.495-.996-1.142-1.494-2.622-1.494-4.438 0-3.252 1.962-5.933 5.888-8.042 1.582-.85 3.487-1.274 5.713-1.274 2.901 0 4.351 1.479 4.351 4.438 0 .352-.03.645-.088.879z" fill="#192655"/><path d="M430.211 66.527c-2.402 0-3.604-1.274-3.604-3.823 0-3.047 1.319-6.43 3.955-10.151-4.453 5.068-7.749 8.57-9.887 10.503a18.109 18.109 0 01-2.11 1.626c-1.875 1.26-3.574 1.875-5.097 1.845-2.783-.029-4.175-1.025-4.175-2.988 0-1.816.908-2.724 2.725-2.724.849 0 1.64.659 2.373 1.977.703 1.318 1.069 1.977 1.098 1.977h.132c3.281-1.142 10.576-8.891 21.885-23.247l6.328-.395-11.602 16.963c-1.845 2.695-2.768 4.57-2.768 5.625 0 .732.425 1.113 1.274 1.142.938.03 2.198-.6 3.78-1.89 1.347-1.083 3.647-3.354 6.899-6.81 2.52-2.667 3.94-4 4.263-4 .293 0 .439.088.439.264 0 .264-.688 1.142-2.065 2.637l-2.945 3.208c-2.49 2.724-4.116 4.424-4.878 5.097-2.343 2.11-4.35 3.164-6.02 3.164z" fill="#192655"/><path d="M395.846 69.735c-4.864 2.754-9.112 5.655-12.744 8.701-5.596 4.688-8.394 8.731-8.394 12.13 0 2.02.894 3.032 2.681 3.032 4.336 0 10.488-7.954 18.457-23.863zm-7.91-7.69c0 1.875.717 2.812 2.153 2.812 2.139 0 4.922-1.904 8.349-5.712 5.069-5.626 7.603-10.46 7.603-14.502 0-1.905-.967-2.857-2.9-2.857-3.311 0-6.724 2.578-10.24 7.734-3.31 4.834-4.965 9.01-4.965 12.525zm19.204-15.337l3.823-5.361 5.625-.352c-5.42 8.672-10.269 17.095-14.546 25.269 3.604-2.256 8.54-6.563 14.81-12.92.293 0 .439.146.439.44 0 1.318-2.417 3.925-7.251 7.822-3.926 3.163-7.017 5.42-9.272 6.767-9.346 17.578-17.242 26.367-23.687 26.367-3.105 0-4.658-1.494-4.658-4.482 0-5.596 8.13-13.067 24.389-22.412l4.615-9.844c-5.01 5.683-9.097 8.525-12.261 8.525-3.516 0-5.273-3.047-5.273-9.14 0-1.26.205-2.652.615-4.175-.205.351-.528.806-.967 1.362-.352.323-.615.484-.791.484-.352 0-.527-.118-.527-.352 0-.557 1.406-2.256 4.218-5.098 5.889-5.976 11.324-8.964 16.304-8.964 3.193 0 4.79 1.377 4.79 4.13 0 .206-.029.513-.088.923a25.62 25.62 0 00-.307 1.011zm-55.943 11.997c-1.523 2.549-2.285 4.248-2.285 5.098 0 1.084.454 1.626 1.362 1.626 1.377 0 4.571-2.608 9.58-7.823l4.087-4.262c.352 0 .528.117.528.351 0 .498-1.201 1.978-3.604 4.439-5.449 5.596-9.17 8.393-11.162 8.393-2.842 0-4.263-1.977-4.263-5.932 0-.381.132-1.23.396-2.55-4.746 5.655-8.482 8.482-11.206 8.482-3.164 0-4.746-1.904-4.746-5.712 0-2.725 2.182-7.295 6.548-13.712l.659-.966-4.175 4.834c-2.344 2.724-3.589 4.087-3.735 4.087-.264 0-.396-.088-.396-.264 0-.879 3.618-5.464 10.855-13.755l6.02-.395-8.789 15.6c-2.344 4.16-3.516 6.68-3.516 7.559 0 1.084.469 1.626 1.407 1.626 5.009 0 12.099-8.13 21.269-24.39l5.933-.395-10.767 18.061z" fill="#192655"/><path d="M310.68 56.244c3.164-.703 6.255-2.168 9.272-4.394 3.574-2.637 5.361-5.376 5.361-8.218 0-1.23-.527-1.846-1.582-1.846-2.519 0-5.2 1.846-8.042 5.537-2.226 2.9-3.896 5.874-5.009 8.921zm-4.966-3.164c-.908 1.318-1.524 1.978-1.846 1.978-.264 0-.395-.118-.395-.352 0-.469 1.142-1.978 3.427-4.526 5.713-6.358 11.162-9.536 16.348-9.536 1.348 0 2.505.38 3.472 1.142.996.762 1.494 1.802 1.494 3.12 0 3.135-2.329 5.992-6.987 8.57-3.282 1.816-6.958 3.208-11.031 4.174-.293 1.641-.439 2.842-.439 3.604 0 2.783 1.201 4.175 3.603 4.175 3.106 0 6.797-2.198 11.075-6.592.791-.82 1.801-1.992 3.032-3.516 1.054-1.318 1.699-1.977 1.933-1.977.352 0 .528.146.528.44 0 .526-1.524 2.328-4.571 5.404-4.804 4.864-9.008 7.31-12.612 7.34-2.432.029-4.35-1.011-5.757-3.12-1.23-1.817-1.845-4-1.845-6.549 0-1.435.19-2.695.571-3.779z" fill="#192655"/><path d="M283.873 69.735c-4.863 2.754-9.111 5.655-12.744 8.701-5.596 4.688-8.394 8.731-8.394 12.13 0 2.02.894 3.032 2.681 3.032 4.336 0 10.488-7.954 18.457-23.863zm-7.91-7.69c0 1.875.718 2.812 2.153 2.812 2.139 0 4.922-1.904 8.35-5.712 5.068-5.626 7.602-10.46 7.602-14.502 0-1.905-.966-2.857-2.9-2.857-3.311 0-6.724 2.578-10.239 7.734-3.311 4.834-4.966 9.01-4.966 12.525zm19.204-15.337l3.823-5.361 5.625-.352c-5.42 8.672-10.268 17.095-14.546 25.269 3.604-2.256 8.54-6.563 14.81-12.92.293 0 .439.146.439.44 0 1.318-2.417 3.925-7.251 7.822-3.925 3.163-7.016 5.42-9.272 6.767-9.346 17.578-17.241 26.367-23.687 26.367-3.105 0-4.658-1.494-4.658-4.482 0-5.596 8.13-13.067 24.39-22.412l4.614-9.844c-5.01 5.683-9.097 8.525-12.261 8.525-3.515 0-5.273-3.047-5.273-9.14 0-1.26.205-2.652.615-4.175-.205.351-.527.806-.967 1.362-.351.323-.615.484-.791.484-.351 0-.527-.118-.527-.352 0-.557 1.406-2.256 4.219-5.098 5.888-5.976 11.323-8.964 16.303-8.964 3.194 0 4.79 1.377 4.79 4.13 0 .206-.029.513-.087.923-.176.557-.279.894-.308 1.011z" fill="#192655"/><path d="M257.682 58.705c-1.524 2.549-2.286 4.248-2.286 5.098 0 1.084.455 1.626 1.363 1.626 1.377 0 4.57-2.608 9.58-7.823l4.087-4.262c.351 0 .527.117.527.351 0 .498-1.201 1.978-3.603 4.439-5.45 5.596-9.17 8.393-11.162 8.393-2.842 0-4.263-1.977-4.263-5.932 0-.381.132-1.23.395-2.55-4.746 5.655-8.481 8.482-11.206 8.482-3.164 0-4.746-1.904-4.746-5.712 0-2.725 2.183-7.295 6.548-13.712l.659-.966-4.175 4.834c-2.343 2.724-3.588 4.087-3.735 4.087-.264 0-.395-.088-.395-.264 0-.879 3.618-5.464 10.854-13.755l6.021-.395-8.79 15.6c-2.343 4.16-3.515 6.68-3.515 7.559 0 1.084.469 1.626 1.406 1.626 5.01 0 12.1-8.13 21.27-24.39l5.932-.395-10.766 18.061zm-58.975-2.461c3.164-.703 6.255-2.168 9.272-4.394 3.575-2.637 5.362-5.376 5.362-8.218 0-1.23-.528-1.846-1.582-1.846-2.52 0-5.2 1.846-8.042 5.537-2.227 2.9-3.897 5.874-5.01 8.921zm-4.966-3.164c-.908 1.318-1.523 1.978-1.845 1.978-.264 0-.396-.118-.396-.352 0-.469 1.143-1.978 3.428-4.526 5.713-6.358 11.162-9.536 16.347-9.536 1.348 0 2.505.38 3.472 1.142.996.762 1.494 1.802 1.494 3.12 0 3.135-2.329 5.992-6.987 8.57-3.281 1.816-6.958 3.208-11.03 4.174-.293 1.641-.44 2.842-.44 3.604 0 2.783 1.201 4.175 3.604 4.175 3.105 0 6.797-2.198 11.074-6.592.791-.82 1.802-1.992 3.032-3.516 1.055-1.318 1.699-1.977 1.934-1.977.351 0 .527.146.527.44 0 .526-1.523 2.328-4.57 5.404-4.805 4.864-9.009 7.31-12.613 7.34-2.431.029-4.35-1.011-5.756-3.12-1.231-1.817-1.846-4-1.846-6.549 0-1.435.19-2.695.571-3.779z" fill="#192655"/><path d="M178.932 58.705c-1.524 2.549-2.286 4.248-2.286 5.098 0 1.084.455 1.626 1.363 1.626 1.377 0 4.57-2.608 9.58-7.823l4.087-4.262c.351 0 .527.117.527.351 0 .498-1.201 1.978-3.603 4.439-5.45 5.596-9.17 8.393-11.162 8.393-2.842 0-4.263-1.977-4.263-5.932 0-.381.132-1.23.395-2.55-4.746 5.655-8.481 8.482-11.206 8.482-3.164 0-4.746-1.904-4.746-5.712 0-2.725 2.183-7.295 6.548-13.712l.659-.966-4.175 4.834c-2.343 2.724-3.588 4.087-3.735 4.087-.264 0-.395-.088-.395-.264 0-.879 3.618-5.464 10.854-13.755l6.021-.395-8.79 15.6c-2.343 4.16-3.515 6.68-3.515 7.559 0 1.084.469 1.626 1.406 1.626 5.01 0 12.1-8.13 21.27-24.39l5.932-.395-10.766 18.061z" fill="#192655"/><path d="M131.646 50.18c.381-.41 1.172-1.29 2.374-2.637 3.984-4.424 9.638-12.378 16.962-23.862l5.406-.484-22.017 35.684c2.813-3.018 4.937-5.376 6.372-7.075 1.084-1.29 3.194-3.267 6.328-5.933 1.436-1.23 2.666-2.183 3.692-2.856 2.373-1.582 4.599-2.373 6.679-2.373 2.608 0 3.912 1.128 3.912 3.383 0 1.319-.674 2.095-2.022 2.33-1.348.263-2.27-.264-2.769-1.583-.41-1.113-.908-1.67-1.494-1.67-2.05 0-4.965 3.033-8.745 9.097-2.666 4.277-3.999 8.086-3.999 11.426 0 1.172.498 1.772 1.494 1.802 1.348.029 4.659-2.52 9.932-7.647.41-.41 1.245-1.23 2.505-2.46l1.055-1.055c.263-.264.483-.396.659-.396.205 0 .366.161.483.483 0 .352-.307.88-.923 1.583-.234.263-1.377 1.391-3.427 3.383-2.842 2.754-4.937 4.57-6.285 5.45-1.757 1.142-3.12 1.713-4.087 1.713-3.134-.029-4.702-2.783-4.702-8.261 0-.498.015-1.055.044-1.67-3.603 2.93-7.002 7.075-10.195 12.436l-11.865 19.907-5.757.616 26.147-43.638-6.679 8.394c-2.373 2.988-4.175 5.01-5.406 6.064-4.746 4.102-9.067 6.152-12.964 6.152-1.259 0-2.285-.307-3.076-.922-.937-.704-1.216-1.656-.835-2.857.411-1.26 1.26-1.89 2.549-1.89.762 0 1.538.674 2.329 2.022.791 1.318 1.158 1.978 1.099 1.978.85 0 2.27-.791 4.263-2.374 3.867-3.046 6.65-7.104 8.349-12.172.879-2.608 1.319-4.659 1.319-6.153 0-1.142-.44-1.714-1.319-1.714-.908 0-2.124.645-3.647 1.934-1.231 1.055-3.428 3.31-6.592 6.767-2.402 2.637-3.779 3.956-4.131 3.956-.293 0-.439-.103-.439-.308 0-.176.131-.454.395-.835.703-.674 1.245-1.274 1.626-1.802l2.373-3.296c1.612-2.226 3.823-4.394 6.636-6.504 1.494-1.113 2.856-1.67 4.087-1.67 2.051 0 3.354 1.172 3.911 3.516.352 1.494.527 2.886.527 4.175 0 .644-.044 1.26-.132 1.846z" fill="#192655"/><path d="M93.59 56.244c3.164-.703 6.255-2.168 9.272-4.394 3.575-2.637 5.362-5.376 5.362-8.218 0-1.23-.528-1.846-1.582-1.846-2.52 0-5.201 1.846-8.042 5.537-2.227 2.9-3.897 5.874-5.01 8.921zm-4.966-3.164c-.908 1.318-1.523 1.978-1.846 1.978-.263 0-.395-.118-.395-.352 0-.469 1.142-1.978 3.428-4.526 5.712-6.358 11.162-9.536 16.347-9.536 1.348 0 2.505.38 3.472 1.142.996.762 1.494 1.802 1.494 3.12 0 3.135-2.329 5.992-6.987 8.57-3.282 1.816-6.958 3.208-11.03 4.174-.293 1.641-.44 2.842-.44 3.604 0 2.783 1.201 4.175 3.603 4.175 3.106 0 6.797-2.198 11.075-6.592.791-.82 1.801-1.992 3.032-3.516 1.055-1.318 1.699-1.977 1.934-1.977.351 0 .527.146.527.44 0 .526-1.524 2.328-4.57 5.404-4.805 4.864-9.01 7.31-12.613 7.34-2.431.029-4.35-1.011-5.757-3.12-1.23-1.817-1.845-4-1.845-6.549 0-1.435.19-2.695.571-3.779z" fill="#192655"/><path d="M73.419 39.677c5.742-4.014 10.635-8.364 14.678-13.052 4.482-5.215 6.723-9.126 6.723-11.733 0-1.875-.805-2.74-2.417-2.593-2.11.176-3.354.806-3.735 1.89l-15.25 25.488zm1.406-11.734a72.683 72.683 0 016.856-9.756c3.896-4.658 7.47-6.987 10.722-6.987 1.143 0 2.11.425 2.9 1.275.821.82 1.231 1.801 1.231 2.944 0 6.035-8.247 15.073-24.741 27.114l-3.867 6.328c-2.608 4.278-4.63 7.91-6.065 10.899-.879 1.846-1.318 3.15-1.318 3.91 0 .675.205 1.114.615 1.32.44.292 1.128.439 2.066.439 3.603 0 6.797-1.7 9.58-5.098 2.431-2.988 3.925-6.401 4.482-10.24.176-1.318.322-2.621.44-3.91.293-3.692 1.362-5.537 3.208-5.537 1.757 0 2.636 1.215 2.636 3.647 0 3.926-1.919 8.379-5.756 13.36-.528 0-.015.087 1.538.263 2.226 0 4.643-1.377 7.25-4.13l1.45-1.539c.294-.058.41-.088.352-.088.235 0 .352.176.352.528v.351l-.088.088-.967 1.186c-2.607 3.194-5.625 4.79-9.053 4.79-.879 0-1.582-.043-2.109-.131-4.629 5.039-9.346 7.558-14.15 7.558-3.516 0-5.288-1.948-5.318-5.844-.029-1.934 1.187-5.347 3.648-10.24l.088-.175-2.285 2.329c-.088.117-.337.38-.748.79-.703.733-1.142 1.1-1.318 1.1h-.22c-.175-.06-.263-.177-.263-.352 0-.235.6-1.04 1.801-2.417 6.24-7.12 11.192-13.8 14.854-20.04l2.197-3.735zm-54.712 4.219C26.002 23.607 33.59 16.62 42.877 11.2c-6.094-6.094-12.89-9.14-20.39-9.14-4.922 0-9.288 1.23-13.096 3.691-4.366 2.812-6.548 6.562-6.548 11.25 0 4.394 1.83 7.998 5.493 10.81 3.193 2.462 7.12 3.912 11.777 4.351zm6.197.44h1.626c8.525 0 17.036-1.86 25.532-5.581 4.424-1.934 8.35-4.234 11.777-6.9 4.863-3.78 7.295-7.368 7.295-10.767 0-3.31-1.919-4.965-5.757-4.965-5.713 0-12.759 2.666-21.138 7.998l3.692 5.976c.85 1.377 1.274 2.256 1.274 2.637 0 .44-.146.66-.44.66-.146 0-1.054-1.29-2.724-3.868l-2.988-4.614c-8.525 6.064-14.575 12.539-18.15 19.424zm3.603 32.783c5.215-.498 10.137-2.593 14.766-6.284 5.127-4.073 7.69-8.599 7.69-13.58 0-1.728-.44-3.134-1.318-4.218-.967-1.201-2.285-1.802-3.955-1.802-4.864 0-9.273 3.589-13.228 10.767-2.637 4.775-3.955 9.39-3.955 13.842v1.275zM17.081 36.908c-4.951-.996-8.877-2.944-11.777-5.845C2.11 27.9.514 23.887.514 19.024c0-5.508 2.27-9.976 6.811-13.404C11.456 2.484 16.363.917 22.047.917c8.056 0 15.395 3.223 22.016 9.668 9.17-4.922 16.656-7.383 22.456-7.383 4.776 0 7.164 2.007 7.164 6.02 0 4.102-2.93 8.38-8.79 12.833-3.925 2.988-8.642 5.727-14.15 8.218-8.789 3.984-17.607 6.298-26.455 6.943-2.783 6.27-4.175 12.143-4.175 17.622 0 6.709 2.769 10.24 8.306 10.59a44.34 44.34 0 01-.264-4.613c0-5.625 1.48-10.782 4.439-15.47 3.428-5.42 7.793-8.13 13.096-8.13 2.431 0 4.335.733 5.712 2.198 1.407 1.436 2.11 3.37 2.11 5.8 0 5.157-2.68 9.918-8.042 14.283-4.864 3.955-10.005 6.284-15.425 6.987a19.98 19.98 0 00.835 4.659l.747 2.46c0 .293-.176.44-.527.44-1.026 0-1.86-2.505-2.505-7.515H26.88c-4.19 0-7.544-1.494-10.064-4.482-2.402-2.813-3.603-6.343-3.603-10.59 0-4.337 1.289-9.185 3.867-14.547z" fill="#192655"/></svg>