<svg width="927" height="95" viewBox="0 0 927 95" fill="none" xmlns="http://www.w3.org/2000/svg">
<path d="M895.592 62.0449C895.592 63.9199 896.324 64.8574 897.789 64.8574C899.928 64.8574 902.74 62.9531 906.227 59.1445C911.412 53.4902 914.005 48.6562 914.005 44.6426C914.005 42.7383 913.009 41.7861 911.017 41.7861C907.706 41.7861 904.249 44.3643 900.646 49.5205C897.276 54.3545 895.592 58.5293 895.592 62.0449ZM914.884 46.708L918.487 41.3467L924.244 40.9951L914.708 56.7275C914.679 56.7861 913.697 58.3535 911.764 61.4297C911.354 62.3086 911.148 63.0557 911.148 63.6709C911.148 64.5791 911.603 65.0332 912.511 65.0332C914.005 65.0332 917.213 62.5283 922.135 57.5186C924.625 54.999 925.973 53.6074 926.178 53.3438C926.529 53.3438 926.705 53.4609 926.705 53.6953C926.705 54.252 925.328 55.9365 922.574 58.749C919.146 62.2646 916.817 64.3887 915.587 65.1211C914.063 66.0293 912.657 66.498 911.368 66.5273C908.907 66.5566 907.677 65.0918 907.677 62.1328C907.677 61.8984 907.706 61.459 907.765 60.8145C907.794 60.4922 907.911 59.7891 908.116 58.7051C904.044 63.8906 900.265 66.498 896.778 66.5273C893.292 66.5566 891.549 63.5098 891.549 57.3867C891.549 56.127 891.754 54.7354 892.164 53.2119C891.959 53.5635 891.637 54.0176 891.197 54.5742C890.846 54.8965 890.582 55.0576 890.406 55.0576C890.055 55.0576 889.879 54.9404 889.879 54.7061C889.879 54.1494 891.285 52.4502 894.098 49.6084C899.986 43.6318 905.421 40.6436 910.401 40.6436C913.595 40.6436 915.191 42.0205 915.191 44.7744C915.191 44.9795 915.162 45.2871 915.104 45.6973C915.074 45.9023 915.001 46.2393 914.884 46.708Z" fill="#192655"/>
<path d="M868.082 53.168C867.291 54.4277 866.72 55.0576 866.368 55.0576C866.046 55.0576 865.885 54.9404 865.885 54.7061C865.885 54.5303 866.163 54.0615 866.72 53.2998C867.013 52.8896 867.936 51.8496 869.488 50.1797C875.377 43.8223 880.826 40.6436 885.836 40.6436C889.791 40.6436 891.769 42.1816 891.769 45.2578C891.769 46.3125 891.446 47.25 890.802 48.0703C890.157 48.8906 889.322 49.3008 888.297 49.3008C886.393 49.3008 885.44 48.5244 885.44 46.9717C885.44 46.5322 885.924 45.8584 886.891 44.9502C887.887 44.042 888.385 43.5 888.385 43.3242C888.385 42.2988 887.755 41.7861 886.495 41.7861C883.185 41.7861 879.903 44.2178 876.651 49.0811C873.663 53.5635 872.169 57.5771 872.169 61.1221C872.169 63.9932 873.399 65.4287 875.86 65.4287C878.79 65.4287 882.481 63.2168 886.935 58.793C890.45 55.3066 892.252 53.4902 892.34 53.3438C892.721 53.3438 892.911 53.4902 892.911 53.7832C892.911 54.2812 891.358 56.083 888.253 59.1885C883.419 64.0518 879.083 66.498 875.245 66.5273C872.755 66.5566 870.807 65.5312 869.4 63.4512C868.17 61.6641 867.555 59.4668 867.555 56.8594C867.555 55.8047 867.73 54.5742 868.082 53.168Z" fill="#192655"/>
<path d="M847.779 56.2441C850.943 55.541 854.034 54.0762 857.052 51.8496C860.626 49.2129 862.413 46.4736 862.413 43.6318C862.413 42.4014 861.886 41.7861 860.831 41.7861C858.312 41.7861 855.631 43.6318 852.789 47.3232C850.562 50.2236 848.893 53.1973 847.779 56.2441ZM842.813 53.0801C841.905 54.3984 841.29 55.0576 840.968 55.0576C840.704 55.0576 840.572 54.9404 840.572 54.7061C840.572 54.2373 841.715 52.7285 844 50.1797C849.713 43.8223 855.162 40.6436 860.348 40.6436C861.695 40.6436 862.853 41.0244 863.819 41.7861C864.815 42.5479 865.313 43.5879 865.313 44.9062C865.313 48.041 862.984 50.8975 858.326 53.4756C855.045 55.292 851.368 56.6836 847.296 57.6504C847.003 59.291 846.856 60.4922 846.856 61.2539C846.856 64.0371 848.058 65.4287 850.46 65.4287C853.565 65.4287 857.257 63.2314 861.534 58.8369C862.325 58.0166 863.336 56.8447 864.566 55.3213C865.621 54.0029 866.266 53.3438 866.5 53.3438C866.852 53.3438 867.027 53.4902 867.027 53.7832C867.027 54.3105 865.504 56.1123 862.457 59.1885C857.652 64.0518 853.448 66.498 849.845 66.5273C847.413 66.5566 845.494 65.5166 844.088 63.4072C842.857 61.5908 842.242 59.4082 842.242 56.8594C842.242 55.4238 842.433 54.1641 842.813 53.0801Z" fill="#192655"/>
<path d="M829.454 51.498C828.517 52.3477 826.744 53.0654 824.137 53.6514C821.383 54.2666 819.566 54.9111 818.688 55.585C816.959 56.874 813.971 60.2578 809.723 65.7363L803.263 66.0879L815.216 49.125C815.304 48.9785 815.494 48.7002 815.787 48.29C817.34 46.0342 818.116 44.4668 818.116 43.5879C818.116 42.7969 817.691 42.4014 816.842 42.4014C815.113 42.4014 811.554 45.2871 806.163 51.0586C803.673 53.7246 802.252 55.0576 801.9 55.0576C801.607 55.0576 801.461 54.9697 801.461 54.7939C801.461 54.6182 801.593 54.3398 801.856 53.959C801.915 53.8711 802.457 53.2705 803.482 52.1572L806.427 48.9492C811.495 43.4121 815.143 40.6436 817.369 40.6436C819.801 40.6436 821.017 42.0938 821.017 44.9941C821.017 47.6309 819.713 50.8975 817.105 54.7939C819.01 53.0361 820.87 52.0254 822.687 51.7617C825.235 51.3809 827.081 50.8975 828.224 50.3115C829.22 49.7842 831.021 47.9092 833.629 44.6865L836.178 41.5225L842.682 41.127L830.333 58.6611C828.634 61.0635 827.784 62.7188 827.784 63.627C827.784 64.418 828.194 64.8281 829.015 64.8574C830.011 64.8867 831.285 64.2568 832.838 62.9678C833.951 62.0596 836.251 59.7891 839.737 56.1562C842.315 53.4902 843.736 52.1572 844 52.1572C844.322 52.1572 844.483 52.2451 844.483 52.4209C844.483 52.626 843.78 53.5049 842.374 55.0576L839.474 58.2656C834.493 63.7734 830.831 66.5273 828.487 66.5273C826.085 66.5273 824.884 65.1064 824.884 62.2646C824.884 59.4814 826.407 55.8926 829.454 51.498Z" fill="#192655"/>
<path d="M781.861 69.7354C777.057 72.4014 772.809 75.2871 769.117 78.3926C763.551 83.0801 760.768 87.123 760.768 90.5215C760.768 92.543 761.661 93.5537 763.448 93.5537C767.784 93.5537 773.922 85.5996 781.861 69.6914V69.7354ZM777.423 60.5508C778.243 59.5254 779.063 57.9727 779.884 55.8926C781.964 55.8047 783.941 54.999 785.816 53.4756C786.812 52.6553 787.457 52.0986 787.75 51.8057C788.395 51.1318 788.805 50.3848 788.98 49.5645C789.303 48.9785 789.464 48.1875 789.464 47.1914C789.464 46.5176 789.42 45.9463 789.332 45.4775C789.039 43.8662 788.102 42.9434 786.52 42.709C785.699 42.5918 783.956 43.3096 781.29 44.8623C777.247 47.2061 773.937 49.8281 771.358 52.7285C771.124 52.9922 770.67 53.5049 769.996 54.2666C769.527 54.7939 769.103 55.0576 768.722 55.0576C768.429 55.0576 768.282 54.9551 768.282 54.75C768.282 54.5742 768.414 54.2959 768.678 53.915L769.337 52.9922C769.718 52.4648 770.758 51.3369 772.457 49.6084C778.346 43.6318 783.78 40.6436 788.761 40.6436C791.954 40.6436 793.653 42.3281 793.858 45.6973C793.917 46.7812 793.639 47.8799 793.023 48.9932C791.178 52.3037 788.043 54.75 783.619 56.332C784.088 56.2734 784.513 56.2441 784.894 56.2441C787.94 56.2441 789.464 57.5479 789.464 60.1553C789.464 61.6787 788.995 63.7002 788.058 66.2197C791.69 64.0225 796.627 59.7305 802.867 53.3438C803.16 53.3438 803.307 53.4902 803.307 53.7832C803.307 55.1016 800.89 57.709 796.056 61.6055C792.276 64.6523 789.186 66.8936 786.783 68.3291C777.438 85.9072 769.557 94.6963 763.141 94.6963C760.035 94.6963 758.482 93.2021 758.482 90.2139C758.482 84.5303 766.598 77.0596 782.828 67.8018C784.645 64.7842 785.553 62.3965 785.553 60.6387C785.553 59.0273 784.879 58.2217 783.531 58.2217C782.184 58.2217 780.147 58.998 777.423 60.5508Z" fill="#192655"/>
<path d="M755.67 58.7051C754.146 61.2539 753.385 62.9531 753.385 63.8027C753.385 64.8867 753.839 65.4287 754.747 65.4287C756.124 65.4287 759.317 62.8213 764.327 57.6064L768.414 53.3438C768.766 53.3438 768.941 53.4609 768.941 53.6953C768.941 54.1934 767.74 55.6729 765.338 58.1338C759.889 63.7295 756.168 66.5273 754.176 66.5273C751.334 66.5273 749.913 64.5498 749.913 60.5947C749.913 60.2139 750.045 59.3643 750.309 58.0459C745.562 63.7002 741.827 66.5273 739.103 66.5273C735.938 66.5273 734.356 64.623 734.356 60.8145C734.356 58.0898 736.539 53.5195 740.904 47.1035L741.563 46.1367L737.389 50.9707C735.045 53.6953 733.8 55.0576 733.653 55.0576C733.39 55.0576 733.258 54.9697 733.258 54.7939C733.258 53.915 736.876 49.3301 744.112 41.0391L750.133 40.6436L741.344 56.2441C739 60.4043 737.828 62.9238 737.828 63.8027C737.828 64.8867 738.297 65.4287 739.234 65.4287C744.244 65.4287 751.334 57.2988 760.504 41.0391L766.437 40.6436L755.67 58.7051Z" fill="#192655"/>
<path d="M709.088 61.7373C709.088 63.9932 709.894 65.0186 711.505 64.8135C713.058 64.6084 714.478 64.1396 715.768 63.4072C719.723 61.1514 722.872 57.709 725.216 53.0801C725.831 51.8789 726.344 50.3115 726.754 48.3779C727.076 46.8838 726.974 45.5215 726.446 44.291C725.86 42.8262 724.82 42.0938 723.326 42.0938C722.184 42.0938 720.895 42.7383 719.459 44.0273C716.91 46.3125 715.138 48.1436 714.142 49.5205C710.772 54.1787 709.088 58.251 709.088 61.7373ZM724.425 57.6504C724.894 57.8555 725.406 57.958 725.963 57.958C726.93 57.958 727.984 57.6357 729.127 56.9912C730.914 55.9951 732.188 54.9551 732.95 53.8711C733.917 52.4941 734.503 52.0254 734.708 52.4648C734.884 52.8164 734.957 53.0508 734.928 53.168C733.99 54.3398 733.214 55.2334 732.599 55.8486C731.72 56.7275 730.826 57.4014 729.918 57.8701C729.303 58.1924 728.014 58.5146 726.051 58.8369C725.143 58.9834 724.205 59.0273 723.238 58.9688C718.961 63.9492 714.933 66.4395 711.153 66.4395C707.11 66.4395 705.089 63.5537 705.089 57.7822C705.089 55.7314 705.323 54.0176 705.792 52.6406C704.62 53.8125 703.99 54.4277 703.902 54.4863C703.463 54.4863 703.346 54.2812 703.551 53.8711L703.99 53.0361C707.008 48.9639 710.787 45.6387 715.328 43.0605C716.559 42.3574 718.155 41.6836 720.118 41.0391C721.085 40.7168 722.008 40.5557 722.887 40.5557C723.883 40.5557 724.718 40.7168 725.392 41.0391C727.267 41.918 728.482 43.207 729.039 44.9062L729.435 46.0928L730.885 43.1924C731.5 41.9619 731.69 40.6143 731.456 39.1494C731.251 37.8896 731.061 36.9229 730.885 36.249C730.562 35.0479 730.167 34.1396 729.698 33.5244C729.405 33.1436 728.951 32.3379 728.336 31.1074C726.812 28.0605 726.241 25.2041 726.622 22.5381C727.472 16.5322 730.826 13.5293 736.686 13.5293C738.473 13.5293 739.835 13.8369 740.772 14.4521C743.116 16.0049 745.445 16.7812 747.76 16.7812C748.961 16.7812 749.942 15.9463 750.704 14.2764C751.202 12.4893 751.583 11.5957 751.847 11.5957C752.403 11.5957 752.682 11.8008 752.682 12.2109C752.682 14.1738 751.993 16.0342 750.616 17.792C749.151 19.6963 747.467 20.6484 745.562 20.6484C742.984 20.6484 740.802 20.0625 739.015 18.8906L736.817 17.4404C736.144 17.001 735.338 16.7812 734.4 16.7812C734.049 16.7812 733.536 16.752 732.862 16.6934C732.188 16.6348 731.632 16.7666 731.192 17.0889C730.05 17.9385 729.478 19.1689 729.478 20.7803C729.478 21.4248 729.566 22.1133 729.742 22.8457C730.035 24.0762 730.914 26.1416 732.379 29.042C733.639 31.5322 734.327 33.5684 734.444 35.1504C734.562 36.8203 734.137 39.1348 733.17 42.0938C732.379 44.5254 731.412 46.708 730.27 48.6416C730.035 49.0518 729.142 50.6045 727.589 53.2998C726.651 54.9404 725.597 56.3906 724.425 57.6504Z" fill="#192655"/>
<path d="M660.748 61.7373C660.748 63.8174 661.686 64.8574 663.561 64.8574C664.82 64.8574 666.52 64.1104 668.658 62.6162C669.889 61.7666 671.046 60.7705 672.13 59.6279C676.437 55.1455 678.59 50.8682 678.59 46.7959C678.59 43.8662 677.433 42.4014 675.118 42.4014C672.071 42.4014 668.863 44.8916 665.494 49.8721C662.33 54.5303 660.748 58.4854 660.748 61.7373ZM676.085 57.6504C676.231 57.709 676.349 57.7383 676.437 57.7383C676.817 57.8555 677.154 57.9141 677.447 57.9141C679.762 57.9141 682.149 56.5664 684.61 53.8711L685.621 52.4648C685.768 52.3184 686.002 52.2158 686.324 52.1572C686.559 52.1572 686.676 52.3477 686.676 52.7285V52.9482L686.632 53.0361C686.632 53.124 686.617 53.168 686.588 53.168L685.621 54.3984C683.16 57.5332 680.23 59.1006 676.832 59.1006H676.261C675.997 59.0713 675.807 59.0566 675.689 59.0566C675.338 58.998 675.074 58.9688 674.898 58.9688C670.445 63.9785 666.417 66.498 662.813 66.5273C658.741 66.5566 656.705 63.3486 656.705 56.9033C656.705 55.4971 656.954 54.0762 657.452 52.6406C656.485 53.8711 655.826 54.4863 655.475 54.4863H655.299C655.123 54.4277 655.035 54.3105 655.035 54.1348C655.094 53.9297 655.299 53.5635 655.65 53.0361C656.119 52.4795 657.145 51.3662 658.727 49.6963C664.439 43.6611 669.757 40.6436 674.679 40.6436C678.839 40.6436 680.919 42.7676 680.919 47.0156C680.919 49.8574 679.308 53.4023 676.085 57.6504Z" fill="#192655"/>
<path d="M657.76 53.6074L653.277 58.793C648.854 63.9199 645.191 66.4834 642.291 66.4834C641.061 66.4834 640.108 65.9121 639.435 64.7695C638.849 63.8027 638.556 62.6748 638.556 61.3857C638.556 58.7783 640.123 55.2188 643.258 50.707C643.463 50.4141 643.595 50.209 643.653 50.0918C645.968 46.4883 647.125 44.3057 647.125 43.5439C647.125 42.7822 646.686 42.4014 645.807 42.4014C644.166 42.4014 640.724 45.0234 635.479 50.2676C632.667 53.0801 631.144 54.4863 630.909 54.4863C630.616 54.4863 630.47 54.3691 630.47 54.1348C630.47 53.5195 631.202 52.5381 632.667 51.1904L635.787 48.29C637.457 46.7373 639.728 44.6719 642.599 42.0938C644.034 41.127 645.396 40.6436 646.686 40.6436C649.293 40.6436 650.597 42.2256 650.597 45.3896C650.597 46.415 650.348 47.5576 649.85 48.8174C649.439 49.8428 648.443 51.5273 646.861 53.8711L645.587 55.7607C642.804 59.8916 641.412 62.5137 641.412 63.627C641.412 64.7988 641.881 65.3848 642.818 65.3848C644.664 65.3848 647.682 63.2314 651.871 58.9248C653.131 57.6357 654.405 56.1416 655.694 54.4424C656.749 53.0654 657.438 52.4209 657.76 52.5088C657.906 52.5674 657.979 52.6846 657.979 52.8604C657.979 53.0361 657.906 53.2852 657.76 53.6074Z" fill="#192655"/>
<path d="M612.936 56.2441C616.1 55.541 619.19 54.0762 622.208 51.8496C625.782 49.2129 627.569 46.4736 627.569 43.6318C627.569 42.4014 627.042 41.7861 625.987 41.7861C623.468 41.7861 620.787 43.6318 617.945 47.3232C615.719 50.2236 614.049 53.1973 612.936 56.2441ZM607.97 53.0801C607.062 54.3984 606.446 55.0576 606.124 55.0576C605.86 55.0576 605.729 54.9404 605.729 54.7061C605.729 54.2373 606.871 52.7285 609.156 50.1797C614.869 43.8223 620.318 40.6436 625.504 40.6436C626.852 40.6436 628.009 41.0244 628.976 41.7861C629.972 42.5479 630.47 43.5879 630.47 44.9062C630.47 48.041 628.141 50.8975 623.482 53.4756C620.201 55.292 616.524 56.6836 612.452 57.6504C612.159 59.291 612.013 60.4922 612.013 61.2539C612.013 64.0371 613.214 65.4287 615.616 65.4287C618.722 65.4287 622.413 63.2314 626.69 58.8369C627.481 58.0166 628.492 56.8447 629.723 55.3213C630.777 54.0029 631.422 53.3438 631.656 53.3438C632.008 53.3438 632.184 53.4902 632.184 53.7832C632.184 54.3105 630.66 56.1123 627.613 59.1885C622.809 64.0518 618.604 66.498 615.001 66.5273C612.569 66.5566 610.65 65.5166 609.244 63.4072C608.014 61.5908 607.398 59.4082 607.398 56.8594C607.398 55.4238 607.589 54.1641 607.97 53.0801Z" fill="#192655"/>
<path d="M559.103 58.1777C559.806 56.127 560.86 54.0469 562.267 51.9375C563.38 50.2676 564.713 48.334 566.266 46.1367C559.527 52.084 555.865 55.0576 555.279 55.0576C555.074 55.0576 554.957 55.043 554.928 55.0137C554.898 54.9844 554.884 54.9551 554.884 54.9258C554.884 54.0762 559.527 49.4473 568.814 41.0391L574.835 40.5117C572.169 44.2324 569.547 48.0117 566.969 51.8496C563.307 57.2988 561.476 61.2539 561.476 63.7148C561.476 64.4766 561.812 64.8574 562.486 64.8574C565.152 64.8867 572.667 57.1084 585.03 41.5225L591.358 41.127L579.757 58.0898C578.087 60.5215 577.164 62.4258 576.988 63.8027C576.9 64.5059 577.325 64.8574 578.263 64.8574C580.401 64.8574 587.081 58.1484 598.302 44.7305L600.982 41.5225L607.486 41.127L595.094 58.6611C593.395 61.0635 592.545 62.748 592.545 63.7148C592.545 64.5645 592.999 64.9893 593.907 64.9893C594.786 64.9893 596.031 64.3154 597.643 62.9678C597.818 62.8213 600.47 60.1846 605.597 55.0576C607.53 53.124 608.6 52.1572 608.805 52.1572C609.098 52.1572 609.244 52.2598 609.244 52.4648C609.244 52.6699 608.556 53.5342 607.179 55.0576L604.278 58.2656C601.905 60.873 600.279 62.5723 599.4 63.3633C597.057 65.4434 595.021 66.4834 593.292 66.4834C590.89 66.4834 589.688 65.0771 589.688 62.2646C589.688 59.54 590.978 56.2588 593.556 52.4209C586.144 61.8252 580.885 66.5127 577.779 66.4834C575.348 66.4541 574.132 65.1943 574.132 62.7041C574.132 59.7158 575.45 56.332 578.087 52.5527C572.96 58.3242 569.415 62.0449 567.452 63.7148C565.284 65.5605 563.468 66.4834 562.003 66.4834C559.952 66.4834 558.854 65.4287 558.707 63.3193C558.531 61.1514 558.663 59.4375 559.103 58.1777ZM590.392 67.6699L562.926 72.0205L561.695 70.4824L590.216 67.2305L590.392 67.6699Z" fill="#192655"/>
<path d="M525.396 62.0449C525.396 63.9199 526.129 64.8574 527.594 64.8574C529.732 64.8574 532.545 62.9531 536.031 59.1445C541.217 53.4902 543.81 48.6562 543.81 44.6426C543.81 42.7383 542.813 41.7861 540.821 41.7861C537.511 41.7861 534.054 44.3643 530.45 49.5205C527.081 54.3545 525.396 58.5293 525.396 62.0449ZM544.688 46.708L548.292 41.3467L554.049 40.9951L544.513 56.7275C544.483 56.7861 543.502 58.3535 541.568 61.4297C541.158 62.3086 540.953 63.0557 540.953 63.6709C540.953 64.5791 541.407 65.0332 542.315 65.0332C543.81 65.0332 547.018 62.5283 551.939 57.5186C554.43 54.999 555.777 53.6074 555.982 53.3438C556.334 53.3438 556.51 53.4609 556.51 53.6953C556.51 54.252 555.133 55.9365 552.379 58.749C548.951 62.2646 546.622 64.3887 545.392 65.1211C543.868 66.0293 542.462 66.498 541.173 66.5273C538.712 66.5566 537.481 65.0918 537.481 62.1328C537.481 61.8984 537.511 61.459 537.569 60.8145C537.599 60.4922 537.716 59.7891 537.921 58.7051C533.849 63.8906 530.069 66.498 526.583 66.5273C523.097 66.5566 521.354 63.5098 521.354 57.3867C521.354 56.127 521.559 54.7354 521.969 53.2119C521.764 53.5635 521.441 54.0176 521.002 54.5742C520.65 54.8965 520.387 55.0576 520.211 55.0576C519.859 55.0576 519.684 54.9404 519.684 54.7061C519.684 54.1494 521.09 52.4502 523.902 49.6084C529.791 43.6318 535.226 40.6436 540.206 40.6436C543.399 40.6436 544.996 42.0205 544.996 44.7744C544.996 44.9795 544.967 45.2871 544.908 45.6973C544.879 45.9023 544.806 46.2393 544.688 46.708Z" fill="#192655"/>
<path d="M506.72 39.6768C512.462 35.6631 517.354 31.3125 521.397 26.625C525.88 21.4102 528.121 17.499 528.121 14.8916C528.121 13.0166 527.315 12.1523 525.704 12.2988C523.595 12.4746 522.35 13.1045 521.969 14.1885L506.72 39.6768ZM508.126 27.9434C510.177 24.457 512.462 21.2051 514.981 18.1875C518.878 13.5293 522.452 11.2002 525.704 11.2002C526.847 11.2002 527.813 11.625 528.604 12.4746C529.425 13.2949 529.835 14.2764 529.835 15.4189C529.835 21.4541 521.588 30.4922 505.094 42.5332L501.227 48.8613C498.619 53.1387 496.598 56.7715 495.162 59.7598C494.283 61.6055 493.844 62.9092 493.844 63.6709C493.844 64.3447 494.049 64.7842 494.459 64.9893C494.898 65.2822 495.587 65.4287 496.524 65.4287C500.128 65.4287 503.321 63.7295 506.104 60.3311C508.536 57.3428 510.03 53.9297 510.587 50.0918C510.763 48.7734 510.909 47.4697 511.026 46.1807C511.319 42.4893 512.389 40.6436 514.234 40.6436C515.992 40.6436 516.871 41.8594 516.871 44.291C516.871 48.2168 514.952 52.6699 511.114 57.6504C510.587 57.6504 511.1 57.7383 512.652 57.9141C514.879 57.9141 517.296 56.5371 519.903 53.7832L521.354 52.2451C521.646 52.1865 521.764 52.1572 521.705 52.1572C521.939 52.1572 522.057 52.333 522.057 52.6846V53.0361L521.969 53.124L521.002 54.3105C518.395 57.5039 515.377 59.1006 511.949 59.1006C511.07 59.1006 510.367 59.0566 509.84 58.9688C505.211 64.0078 500.494 66.5273 495.689 66.5273C492.174 66.5273 490.401 64.5791 490.372 60.6826C490.343 58.749 491.559 55.3359 494.02 50.4434L494.107 50.2676L491.822 52.5967C491.734 52.7139 491.485 52.9775 491.075 53.3877C490.372 54.1201 489.933 54.4863 489.757 54.4863H489.537C489.361 54.4277 489.273 54.3105 489.273 54.1348C489.273 53.9004 489.874 53.0947 491.075 51.7178C497.315 44.5986 502.267 37.9189 505.929 31.6787L508.126 27.9434Z" fill="#192655"/>
<path d="M449.415 51.5859C449.474 52.9043 450.06 53.7246 451.173 54.0469C452.345 54.5449 453.839 54.1348 455.655 52.8164C458.585 50.6777 459.991 48.3193 459.874 45.7412C459.757 43.2803 458.775 42.0498 456.93 42.0498C455.465 42.0498 453.883 43.002 452.184 44.9062C450.25 47.1035 449.327 49.3301 449.415 51.5859ZM461.632 45.9609C462.423 44.9941 463.609 43.5146 465.191 41.5225L471.52 41.127L459.918 58.0898C458.072 60.7852 457.149 62.6602 457.149 63.7148C457.149 64.4766 457.574 64.8574 458.424 64.8574C459.391 64.8574 460.65 64.2275 462.203 62.9678C462.525 62.7041 464.825 60.4336 469.103 56.1562L470.069 55.1895C470.187 55.0723 470.597 54.6328 471.3 53.8711C472.354 52.7285 473.043 52.1572 473.365 52.1572C473.658 52.1572 473.805 52.2451 473.805 52.4209C473.805 52.6553 473.395 53.2266 472.574 54.1348C472.428 54.2812 472.149 54.5889 471.739 55.0576L468.795 58.2656C465.602 61.752 463.346 63.9639 462.027 64.9014C460.592 65.9268 459.215 66.4541 457.896 66.4834C455.494 66.4834 454.293 65.2236 454.293 62.7041C454.293 61.9717 454.601 60.3604 455.216 57.8701C455.45 56.9033 455.758 56.0537 456.139 55.3213C454 58.0459 451.407 60.624 448.36 63.0557C447.218 63.9639 446.515 64.5059 446.251 64.6816C444.464 65.8535 442.779 66.4541 441.197 66.4834C438.414 66.5127 437.022 65.5312 437.022 63.5391C437.022 61.7227 437.931 60.8145 439.747 60.8145C440.802 60.8145 441.959 62.1328 443.219 64.7695H443.351C444.815 64.0078 446.632 62.6162 448.8 60.5947C450.851 58.6904 452.433 56.9912 453.546 55.4971C453.194 55.6143 452.535 55.7461 451.568 55.8926C449.781 56.1562 448.346 55.6582 447.262 54.3984C446.266 53.2559 445.768 51.7764 445.768 49.96C445.768 46.708 447.73 44.0273 451.656 41.918C453.238 41.0684 455.143 40.6436 457.369 40.6436C460.27 40.6436 461.72 42.123 461.72 45.082C461.72 45.4336 461.69 45.7266 461.632 45.9609Z" fill="#192655"/>
<path d="M430.211 66.5273C427.809 66.5273 426.607 65.2529 426.607 62.7041C426.607 59.6572 427.926 56.2734 430.562 52.5527C426.109 57.6211 422.813 61.1221 420.675 63.0557C420.06 63.6123 419.356 64.1543 418.565 64.6816C416.69 65.9414 414.991 66.5566 413.468 66.5273C410.685 66.498 409.293 65.502 409.293 63.5391C409.293 61.7227 410.201 60.8145 412.018 60.8145C412.867 60.8145 413.658 61.4736 414.391 62.792C415.094 64.1104 415.46 64.7695 415.489 64.7695H415.621C418.902 63.627 426.197 55.8779 437.506 41.5225L443.834 41.127L432.232 58.0898C430.387 60.7852 429.464 62.6602 429.464 63.7148C429.464 64.4473 429.889 64.8281 430.738 64.8574C431.676 64.8867 432.936 64.2568 434.518 62.9678C435.865 61.8838 438.165 59.6133 441.417 56.1562C443.937 53.4902 445.357 52.1572 445.68 52.1572C445.973 52.1572 446.119 52.2451 446.119 52.4209C446.119 52.6846 445.431 53.5635 444.054 55.0576L441.109 58.2656C438.619 60.9902 436.993 62.6895 436.231 63.3633C433.888 65.4727 431.881 66.5273 430.211 66.5273Z" fill="#192655"/>
<path d="M395.846 69.7354C390.982 72.4893 386.734 75.3896 383.102 78.4365C377.506 83.124 374.708 87.167 374.708 90.5654C374.708 92.5869 375.602 93.5977 377.389 93.5977C381.725 93.5977 387.877 85.6436 395.846 69.7354ZM387.936 62.0449C387.936 63.9199 388.653 64.8574 390.089 64.8574C392.228 64.8574 395.011 62.9531 398.438 59.1445C403.507 53.5195 406.041 48.6855 406.041 44.6426C406.041 42.7383 405.074 41.7861 403.141 41.7861C399.83 41.7861 396.417 44.3643 392.901 49.5205C389.591 54.3545 387.936 58.5293 387.936 62.0449ZM407.14 46.708L410.963 41.3467L416.588 40.9951C411.168 49.667 406.319 58.0898 402.042 66.2637C405.646 64.0078 410.582 59.7012 416.852 53.3438C417.145 53.3438 417.291 53.4902 417.291 53.7832C417.291 55.1016 414.874 57.709 410.04 61.6055C406.114 64.7695 403.023 67.0254 400.768 68.373C391.422 85.9512 383.526 94.7402 377.081 94.7402C373.976 94.7402 372.423 93.2461 372.423 90.2578C372.423 84.6621 380.553 77.1914 396.812 67.8457L401.427 58.002C396.417 63.6855 392.33 66.5273 389.166 66.5273C385.65 66.5273 383.893 63.4805 383.893 57.3867C383.893 56.127 384.098 54.7354 384.508 53.2119C384.303 53.5635 383.98 54.0176 383.541 54.5742C383.189 54.8965 382.926 55.0576 382.75 55.0576C382.398 55.0576 382.223 54.9404 382.223 54.7061C382.223 54.1494 383.629 52.4502 386.441 49.6084C392.33 43.6318 397.765 40.6436 402.745 40.6436C405.938 40.6436 407.535 42.0205 407.535 44.7744C407.535 44.9795 407.506 45.2871 407.447 45.6973C407.271 46.2539 407.169 46.5908 407.14 46.708Z" fill="#192655"/>
<path d="M351.197 58.7051C349.674 61.2539 348.912 62.9531 348.912 63.8027C348.912 64.8867 349.366 65.4287 350.274 65.4287C351.651 65.4287 354.845 62.8213 359.854 57.6064L363.941 53.3438C364.293 53.3438 364.469 53.4609 364.469 53.6953C364.469 54.1934 363.268 55.6729 360.865 58.1338C355.416 63.7295 351.695 66.5273 349.703 66.5273C346.861 66.5273 345.44 64.5498 345.44 60.5947C345.44 60.2139 345.572 59.3643 345.836 58.0459C341.09 63.7002 337.354 66.5273 334.63 66.5273C331.466 66.5273 329.884 64.623 329.884 60.8145C329.884 58.0898 332.066 53.5195 336.432 47.1035L337.091 46.1367L332.916 50.9707C330.572 53.6953 329.327 55.0576 329.181 55.0576C328.917 55.0576 328.785 54.9697 328.785 54.7939C328.785 53.915 332.403 49.3301 339.64 41.0391L345.66 40.6436L336.871 56.2441C334.527 60.4043 333.355 62.9238 333.355 63.8027C333.355 64.8867 333.824 65.4287 334.762 65.4287C339.771 65.4287 346.861 57.2988 356.031 41.0391L361.964 40.6436L351.197 58.7051Z" fill="#192655"/>
<path d="M310.68 56.2441C313.844 55.541 316.935 54.0762 319.952 51.8496C323.526 49.2129 325.313 46.4736 325.313 43.6318C325.313 42.4014 324.786 41.7861 323.731 41.7861C321.212 41.7861 318.531 43.6318 315.689 47.3232C313.463 50.2236 311.793 53.1973 310.68 56.2441ZM305.714 53.0801C304.806 54.3984 304.19 55.0576 303.868 55.0576C303.604 55.0576 303.473 54.9404 303.473 54.7061C303.473 54.2373 304.615 52.7285 306.9 50.1797C312.613 43.8223 318.062 40.6436 323.248 40.6436C324.596 40.6436 325.753 41.0244 326.72 41.7861C327.716 42.5479 328.214 43.5879 328.214 44.9062C328.214 48.041 325.885 50.8975 321.227 53.4756C317.945 55.292 314.269 56.6836 310.196 57.6504C309.903 59.291 309.757 60.4922 309.757 61.2539C309.757 64.0371 310.958 65.4287 313.36 65.4287C316.466 65.4287 320.157 63.2314 324.435 58.8369C325.226 58.0166 326.236 56.8447 327.467 55.3213C328.521 54.0029 329.166 53.3438 329.4 53.3438C329.752 53.3438 329.928 53.4902 329.928 53.7832C329.928 54.3105 328.404 56.1123 325.357 59.1885C320.553 64.0518 316.349 66.498 312.745 66.5273C310.313 66.5566 308.395 65.5166 306.988 63.4072C305.758 61.5908 305.143 59.4082 305.143 56.8594C305.143 55.4238 305.333 54.1641 305.714 53.0801Z" fill="#192655"/>
<path d="M283.873 69.7354C279.01 72.4893 274.762 75.3896 271.129 78.4365C265.533 83.124 262.735 87.167 262.735 90.5654C262.735 92.5869 263.629 93.5977 265.416 93.5977C269.752 93.5977 275.904 85.6436 283.873 69.7354ZM275.963 62.0449C275.963 63.9199 276.681 64.8574 278.116 64.8574C280.255 64.8574 283.038 62.9531 286.466 59.1445C291.534 53.5195 294.068 48.6855 294.068 44.6426C294.068 42.7383 293.102 41.7861 291.168 41.7861C287.857 41.7861 284.444 44.3643 280.929 49.5205C277.618 54.3545 275.963 58.5293 275.963 62.0449ZM295.167 46.708L298.99 41.3467L304.615 40.9951C299.195 49.667 294.347 58.0898 290.069 66.2637C293.673 64.0078 298.609 59.7012 304.879 53.3438C305.172 53.3438 305.318 53.4902 305.318 53.7832C305.318 55.1016 302.901 57.709 298.067 61.6055C294.142 64.7695 291.051 67.0254 288.795 68.373C279.449 85.9512 271.554 94.7402 265.108 94.7402C262.003 94.7402 260.45 93.2461 260.45 90.2578C260.45 84.6621 268.58 77.1914 284.84 67.8457L289.454 58.002C284.444 63.6855 280.357 66.5273 277.193 66.5273C273.678 66.5273 271.92 63.4805 271.92 57.3867C271.92 56.127 272.125 54.7354 272.535 53.2119C272.33 53.5635 272.008 54.0176 271.568 54.5742C271.217 54.8965 270.953 55.0576 270.777 55.0576C270.426 55.0576 270.25 54.9404 270.25 54.7061C270.25 54.1494 271.656 52.4502 274.469 49.6084C280.357 43.6318 285.792 40.6436 290.772 40.6436C293.966 40.6436 295.562 42.0205 295.562 44.7744C295.562 44.9795 295.533 45.2871 295.475 45.6973C295.299 46.2539 295.196 46.5908 295.167 46.708Z" fill="#192655"/>
<path d="M257.682 58.7051C256.158 61.2539 255.396 62.9531 255.396 63.8027C255.396 64.8867 255.851 65.4287 256.759 65.4287C258.136 65.4287 261.329 62.8213 266.339 57.6064L270.426 53.3438C270.777 53.3438 270.953 53.4609 270.953 53.6953C270.953 54.1934 269.752 55.6729 267.35 58.1338C261.9 63.7295 258.18 66.5273 256.188 66.5273C253.346 66.5273 251.925 64.5498 251.925 60.5947C251.925 60.2139 252.057 59.3643 252.32 58.0459C247.574 63.7002 243.839 66.5273 241.114 66.5273C237.95 66.5273 236.368 64.623 236.368 60.8145C236.368 58.0898 238.551 53.5195 242.916 47.1035L243.575 46.1367L239.4 50.9707C237.057 53.6953 235.812 55.0576 235.665 55.0576C235.401 55.0576 235.27 54.9697 235.27 54.7939C235.27 53.915 238.888 49.3301 246.124 41.0391L252.145 40.6436L243.355 56.2441C241.012 60.4043 239.84 62.9238 239.84 63.8027C239.84 64.8867 240.309 65.4287 241.246 65.4287C246.256 65.4287 253.346 57.2988 262.516 41.0391L268.448 40.6436L257.682 58.7051Z" fill="#192655"/>
<path d="M198.707 56.2441C201.871 55.541 204.962 54.0762 207.979 51.8496C211.554 49.2129 213.341 46.4736 213.341 43.6318C213.341 42.4014 212.813 41.7861 211.759 41.7861C209.239 41.7861 206.559 43.6318 203.717 47.3232C201.49 50.2236 199.82 53.1973 198.707 56.2441ZM193.741 53.0801C192.833 54.3984 192.218 55.0576 191.896 55.0576C191.632 55.0576 191.5 54.9404 191.5 54.7061C191.5 54.2373 192.643 52.7285 194.928 50.1797C200.641 43.8223 206.09 40.6436 211.275 40.6436C212.623 40.6436 213.78 41.0244 214.747 41.7861C215.743 42.5479 216.241 43.5879 216.241 44.9062C216.241 48.041 213.912 50.8975 209.254 53.4756C205.973 55.292 202.296 56.6836 198.224 57.6504C197.931 59.291 197.784 60.4922 197.784 61.2539C197.784 64.0371 198.985 65.4287 201.388 65.4287C204.493 65.4287 208.185 63.2314 212.462 58.8369C213.253 58.0166 214.264 56.8447 215.494 55.3213C216.549 54.0029 217.193 53.3438 217.428 53.3438C217.779 53.3438 217.955 53.4902 217.955 53.7832C217.955 54.3105 216.432 56.1123 213.385 59.1885C208.58 64.0518 204.376 66.498 200.772 66.5273C198.341 66.5566 196.422 65.5166 195.016 63.4072C193.785 61.5908 193.17 59.4082 193.17 56.8594C193.17 55.4238 193.36 54.1641 193.741 53.0801Z" fill="#192655"/>
<path d="M178.932 58.7051C177.408 61.2539 176.646 62.9531 176.646 63.8027C176.646 64.8867 177.101 65.4287 178.009 65.4287C179.386 65.4287 182.579 62.8213 187.589 57.6064L191.676 53.3438C192.027 53.3438 192.203 53.4609 192.203 53.6953C192.203 54.1934 191.002 55.6729 188.6 58.1338C183.15 63.7295 179.43 66.5273 177.438 66.5273C174.596 66.5273 173.175 64.5498 173.175 60.5947C173.175 60.2139 173.307 59.3643 173.57 58.0459C168.824 63.7002 165.089 66.5273 162.364 66.5273C159.2 66.5273 157.618 64.623 157.618 60.8145C157.618 58.0898 159.801 53.5195 164.166 47.1035L164.825 46.1367L160.65 50.9707C158.307 53.6953 157.062 55.0576 156.915 55.0576C156.651 55.0576 156.52 54.9697 156.52 54.7939C156.52 53.915 160.138 49.3301 167.374 41.0391L173.395 40.6436L164.605 56.2441C162.262 60.4043 161.09 62.9238 161.09 63.8027C161.09 64.8867 161.559 65.4287 162.496 65.4287C167.506 65.4287 174.596 57.2988 183.766 41.0391L189.698 40.6436L178.932 58.7051Z" fill="#192655"/>
<path d="M131.646 50.1797C132.027 49.7695 132.818 48.8906 134.02 47.543C138.004 43.1191 143.658 35.165 150.982 23.6807L156.388 23.1973L134.371 58.8809C137.184 55.8633 139.308 53.5049 140.743 51.8057C141.827 50.5166 143.937 48.5391 147.071 45.873C148.507 44.6426 149.737 43.6904 150.763 43.0166C153.136 41.4346 155.362 40.6436 157.442 40.6436C160.05 40.6436 161.354 41.7715 161.354 44.0273C161.354 45.3457 160.68 46.1221 159.332 46.3564C157.984 46.6201 157.062 46.0928 156.563 44.7744C156.153 43.6611 155.655 43.1045 155.069 43.1045C153.019 43.1045 150.104 46.1367 146.324 52.2012C143.658 56.4785 142.325 60.2871 142.325 63.627C142.325 64.7988 142.823 65.3994 143.819 65.4287C145.167 65.458 148.478 62.9092 153.751 57.7822C154.161 57.3721 154.996 56.5518 156.256 55.3213L157.311 54.2666C157.574 54.0029 157.794 53.8711 157.97 53.8711C158.175 53.8711 158.336 54.0322 158.453 54.3545C158.453 54.7061 158.146 55.2334 157.53 55.9365C157.296 56.2002 156.153 57.3281 154.103 59.3203C151.261 62.0742 149.166 63.8906 147.818 64.7695C146.061 65.9121 144.698 66.4834 143.731 66.4834C140.597 66.4541 139.029 63.7002 139.029 58.2217C139.029 57.7236 139.044 57.167 139.073 56.5518C135.47 59.4814 132.071 63.627 128.878 68.9883L117.013 88.8955L111.256 89.5107L137.403 45.873L130.724 54.2666C128.351 57.2549 126.549 59.2764 125.318 60.3311C120.572 64.4326 116.251 66.4834 112.354 66.4834C111.095 66.4834 110.069 66.1758 109.278 65.5605C108.341 64.8574 108.062 63.9053 108.443 62.7041C108.854 61.4443 109.703 60.8145 110.992 60.8145C111.754 60.8145 112.53 61.4883 113.321 62.8359C114.112 64.1543 114.479 64.8135 114.42 64.8135C115.27 64.8135 116.69 64.0225 118.683 62.4404C122.55 59.3936 125.333 55.3359 127.032 50.2676C127.911 47.6602 128.351 45.6094 128.351 44.1152C128.351 42.9727 127.911 42.4014 127.032 42.4014C126.124 42.4014 124.908 43.0459 123.385 44.335C122.154 45.3896 119.957 47.6455 116.793 51.1025C114.391 53.7393 113.014 55.0576 112.662 55.0576C112.369 55.0576 112.223 54.9551 112.223 54.75C112.223 54.5742 112.354 54.2959 112.618 53.915C113.321 53.2412 113.863 52.6406 114.244 52.1133L116.617 48.8174C118.229 46.5908 120.44 44.4229 123.253 42.3135C124.747 41.2002 126.109 40.6436 127.34 40.6436C129.391 40.6436 130.694 41.8154 131.251 44.1592C131.603 45.6533 131.778 47.0449 131.778 48.334C131.778 48.9785 131.734 49.5938 131.646 50.1797Z" fill="#192655"/>
<path d="M93.5898 56.2441C96.7539 55.541 99.8447 54.0762 102.862 51.8496C106.437 49.2129 108.224 46.4736 108.224 43.6318C108.224 42.4014 107.696 41.7861 106.642 41.7861C104.122 41.7861 101.441 43.6318 98.5996 47.3232C96.373 50.2236 94.7031 53.1973 93.5898 56.2441ZM88.624 53.0801C87.7158 54.3984 87.1006 55.0576 86.7783 55.0576C86.5146 55.0576 86.3828 54.9404 86.3828 54.7061C86.3828 54.2373 87.5254 52.7285 89.8105 50.1797C95.5234 43.8223 100.973 40.6436 106.158 40.6436C107.506 40.6436 108.663 41.0244 109.63 41.7861C110.626 42.5479 111.124 43.5879 111.124 44.9062C111.124 48.041 108.795 50.8975 104.137 53.4756C100.855 55.292 97.1787 56.6836 93.1064 57.6504C92.8135 59.291 92.667 60.4922 92.667 61.2539C92.667 64.0371 93.8682 65.4287 96.2705 65.4287C99.376 65.4287 103.067 63.2314 107.345 58.8369C108.136 58.0166 109.146 56.8447 110.377 55.3213C111.432 54.0029 112.076 53.3438 112.311 53.3438C112.662 53.3438 112.838 53.4902 112.838 53.7832C112.838 54.3105 111.314 56.1123 108.268 59.1885C103.463 64.0518 99.2588 66.498 95.6553 66.5273C93.2236 66.5566 91.3047 65.5166 89.8984 63.4072C88.668 61.5908 88.0527 59.4082 88.0527 56.8594C88.0527 55.4238 88.2432 54.1641 88.624 53.0801Z" fill="#192655"/>
<path d="M73.4189 39.6768C79.1611 35.6631 84.0537 31.3125 88.0967 26.625C92.5791 21.4102 94.8203 17.499 94.8203 14.8916C94.8203 13.0166 94.0146 12.1523 92.4033 12.2988C90.2939 12.4746 89.0488 13.1045 88.668 14.1885L73.4189 39.6768ZM74.8252 27.9434C76.876 24.457 79.1611 21.2051 81.6807 18.1875C85.5771 13.5293 89.1514 11.2002 92.4033 11.2002C93.5459 11.2002 94.5127 11.625 95.3037 12.4746C96.124 13.2949 96.5342 14.2764 96.5342 15.4189C96.5342 21.4541 88.2871 30.4922 71.793 42.5332L67.9258 48.8613C65.3184 53.1387 63.2969 56.7715 61.8613 59.7598C60.9824 61.6055 60.543 62.9092 60.543 63.6709C60.543 64.3447 60.748 64.7842 61.1582 64.9893C61.5977 65.2822 62.2861 65.4287 63.2236 65.4287C66.8271 65.4287 70.0205 63.7295 72.8037 60.3311C75.2354 57.3428 76.7295 53.9297 77.2861 50.0918C77.4619 48.7734 77.6084 47.4697 77.7256 46.1807C78.0186 42.4893 79.0879 40.6436 80.9336 40.6436C82.6914 40.6436 83.5703 41.8594 83.5703 44.291C83.5703 48.2168 81.6514 52.6699 77.8135 57.6504C77.2861 57.6504 77.7988 57.7383 79.3516 57.9141C81.5781 57.9141 83.9951 56.5371 86.6025 53.7832L88.0527 52.2451C88.3457 52.1865 88.4629 52.1572 88.4043 52.1572C88.6387 52.1572 88.7559 52.333 88.7559 52.6846V53.0361L88.668 53.124L87.7012 54.3105C85.0938 57.5039 82.0762 59.1006 78.6484 59.1006C77.7695 59.1006 77.0664 59.0566 76.5391 58.9688C71.9102 64.0078 67.1934 66.5273 62.3887 66.5273C58.873 66.5273 57.1006 64.5791 57.0713 60.6826C57.042 58.749 58.2578 55.3359 60.7188 50.4434L60.8066 50.2676L58.5215 52.5967C58.4336 52.7139 58.1846 52.9775 57.7744 53.3877C57.0713 54.1201 56.6318 54.4863 56.4561 54.4863H56.2363C56.0605 54.4277 55.9727 54.3105 55.9727 54.1348C55.9727 53.9004 56.5732 53.0947 57.7744 51.7178C64.0146 44.5986 68.9658 37.9189 72.6279 31.6787L74.8252 27.9434Z" fill="#192655"/>
<path d="M20.1133 32.1621C26.002 23.6074 33.5898 16.6201 42.877 11.2002C36.7832 5.10645 29.9863 2.05957 22.4863 2.05957C17.5645 2.05957 13.1992 3.29004 9.39062 5.75098C5.02539 8.56348 2.84277 12.3135 2.84277 17.001C2.84277 21.3955 4.67383 24.999 8.33594 27.8115C11.5293 30.2725 15.4551 31.7227 20.1133 32.1621ZM26.3096 32.6016H27.9355C36.4609 32.6016 44.9717 30.7412 53.4678 27.0205C57.8916 25.0869 61.8174 22.7871 65.2451 20.1211C70.1084 16.3418 72.54 12.7529 72.54 9.35449C72.54 6.04395 70.6211 4.38867 66.7832 4.38867C61.0703 4.38867 54.0244 7.05469 45.6455 12.3867L49.3369 18.3633C50.1865 19.7402 50.6113 20.6191 50.6113 21C50.6113 21.4395 50.4648 21.6592 50.1719 21.6592C50.0254 21.6592 49.1172 20.3701 47.4473 17.792L44.459 13.1777C35.9336 19.2422 29.8838 25.7168 26.3096 32.6016ZM29.9131 65.3848C35.1279 64.8867 40.0498 62.792 44.6787 59.1006C49.8057 55.0283 52.3691 50.502 52.3691 45.5215C52.3691 43.793 51.9297 42.3867 51.0508 41.3027C50.084 40.1016 48.7656 39.501 47.0957 39.501C42.2324 39.501 37.8232 43.0898 33.8682 50.2676C31.2314 55.043 29.9131 59.6572 29.9131 64.1104V65.3848ZM17.0811 36.9082C12.1299 35.9121 8.2041 33.9639 5.30371 31.0635C2.11035 27.8994 0.513672 23.8857 0.513672 19.0225C0.513672 13.5146 2.78418 9.04688 7.3252 5.61914C11.4561 2.48438 16.3633 0.916992 22.0469 0.916992C30.1035 0.916992 37.4424 4.13965 44.0635 10.585C53.2334 5.66309 60.7188 3.20215 66.5195 3.20215C71.2949 3.20215 73.6826 5.20898 73.6826 9.22266C73.6826 13.3242 70.7529 17.6016 64.8936 22.0547C60.9678 25.043 56.251 27.7822 50.7432 30.2725C41.9541 34.2568 33.1357 36.5713 24.2881 37.2158C21.5049 43.4854 20.1133 49.3594 20.1133 54.8379C20.1133 61.5469 22.8818 65.0771 28.4189 65.4287C28.2432 63.7588 28.1553 62.2207 28.1553 60.8145C28.1553 55.1895 29.6348 50.0332 32.5938 45.3457C36.0215 39.9258 40.3867 37.2158 45.6895 37.2158C48.1211 37.2158 50.0254 37.9482 51.4023 39.4131C52.8086 40.8486 53.5117 42.7822 53.5117 45.2139C53.5117 50.3701 50.8311 55.1309 45.4697 59.4961C40.6064 63.4512 35.4648 65.7803 30.0449 66.4834C30.1328 68.0361 30.4111 69.5889 30.8799 71.1416L31.627 73.6025C31.627 73.8955 31.4512 74.042 31.0996 74.042C30.0742 74.042 29.2393 71.5371 28.5947 66.5273H26.8809C22.6914 66.5273 19.3369 65.0332 16.8174 62.0449C14.415 59.2324 13.2139 55.7021 13.2139 51.4541C13.2139 47.1182 14.5029 42.2695 17.0811 36.9082Z" fill="#192655"/>
</svg>
